{
  "accessors": [
    {
      "bufferView": 2,
      "componentType": 5126,
      "count": 527,
      "max": [
        1.0499999523162842,
        2.2999999523162842,
        5.1000008583068848
      ],
      "min": [
        -1.0499999523162842,
        -0.0016349999932572246,
        -5.3100018501281738
      ],
      "type": "VEC3"
    },
    {
      "bufferView": 2,
      "byteOffset": 6324,
      "componentType": 5126,
      "count": 527,
      "max": [
        1,
        1,
        1
      ],
      "min": [
        -1,
        -1,
        -1
      ],
      "type": "VEC3"
    },
    {
      "bufferView": 3,
      "componentType": 5126,
      "count": 527,
      "max": [
        1,
        1,
        1,
        1
      ],
      "min": [
        -1,
        -1,
        -0.984031081199646,
        -1
      ],
      "type": "VEC4"
    },
    {
      "bufferView": 1,
      "componentType": 5126,
      "count": 527,
      "max": [
        0.98744499683380127,
        0.95072400569915771
      ],
      "min": [
        0.016685999929904938,
        0.002845000009983778
      ],
      "type": "VEC2"
    },
    {
      "bufferView": 0,
      "componentType": 5125,
      "count": 1950,
      "max": [
        526
      ],
      "min": [
        0
      ],
      "type": "SCALAR"
    },
    {
      "bufferView": 2,
      "byteOffset": 12648,
      "componentType": 5126,
      "count": 2402,
      "max": [
        1.029723048210144,
        0.67927402257919312,
        3.7042748928070068
      ],
      "min": [
        0.72062700986862183,
        -0.27927398681640625,
        2.7457249164581299
      ],
      "type": "VEC3"
    },
    {
      "bufferView": 2,
      "byteOffset": 41472,
      "componentType": 5126,
      "count": 2402,
      "max": [
        1,
        1,
        1
      ],
      "min": [
        -1,
        -1,
        -1
      ],
      "type": "VEC3"
    },
    {
      "bufferView": 1,
      "byteOffset": 4216,
      "componentType": 5126,
      "count": 2402,
      "max": [
        3.9096689224243164,
        -0.9297720193862915
      ],
      "min": [
        -0.0078309997916221619,
        -3.5291669368743896
      ],
      "type": "VEC2"
    },
    {
      "bufferView": 0,
      "byteOffset": 7800,
      "componentType": 5125,
      "count": 5760,
      "max": [
        2401
      ],
      "min": [
        0
      ],
      "type": "SCALAR"
    },
    {
      "bufferView": 2,
      "byteOffset": 70296,
      "componentType": 5126,
      "count": 3693,
      "max": [
        -0.47590199112892151,
        0.67927402257919312,
        -1.9202380180358887
      ],
      "min": [
        -1.0067299604415894,
        -0.27927398681640625,
        -2.8787870407104492
      ],
      "type": "VEC3"
    },
    {
      "bufferView": 2,
      "byteOffset": 114612,
      "componentType": 5126,
      "count": 3693,
      "max": [
        1,
        1,
        1
      ],
      "min": [
        -1,
        -1,
        -1
      ],
      "type": "VEC3"
    },
    {
      "bufferView": 1,
      "byteOffset": 23432,
      "componentType": 5126,
      "count": 3693,
      "max": [
        3.9096689224243164,
        -0.9297720193862915
      ],
      "min": [
        -0.0078309997916221619,
        -3.5291669368743896
      ],
      "type": "VEC2"
    },
    {
      "bufferView": 0,
      "byteOffset": 30840,
      "componentType": 5125,
      "count": 9900,
      "max": [
        3692
      ],
      "min": [
        0
      ],
      "type": "SCALAR"
    },
    {
      "bufferView": 2,
      "byteOffset": 158928,
      "componentType": 5126,
      "count": 120,
      "max": [
        -0.79385101795196533,
        0.30844300985336304,
        -2.2936298847198486
      ],
      "min": [
        -0.79385101795196533,
        0.095638997852802277,
        -2.5064330101013184
      ],
      "type": "VEC3"
    },
    {
      "bufferView": 2,
      "byteOffset": 160368,
      "componentType": 5126,
      "count": 120,
      "max": [
        1,
        7.5193593147560023e-06,
        0
      ],
      "min": [
        1,
        -1.0525412108108867e-05,
        0
      ],
      "type": "VEC3"
    },
    {
      "bufferView": 1,
      "byteOffset": 52976,
      "componentType": 5126,
      "count": 120,
      "max": [
        1,
        1
      ],
      "min": [
        0,
        0
      ],
      "type": "VEC2"
    },
    {
      "bufferView": 0,
      "byteOffset": 70440,
      "componentType": 5125,
      "count": 180,
      "max": [
        119
      ],
      "min": [
        0
      ],
      "type": "SCALAR"
    },
    {
      "bufferView": 2,
      "byteOffset": 161808,
      "componentType": 5126,
      "count": 2402,
      "max": [
        -0.72062700986862183,
        0.67927402257919312,
        3.7042748928070068
      ],
      "min": [
        -1.029723048210144,
        -0.27927398681640625,
        2.7457249164581299
      ],
      "type": "VEC3"
    },
    {
      "bufferView": 2,
      "byteOffset": 190632,
      "componentType": 5126,
      "count": 2402,
      "max": [
        1,
        1,
        1
      ],
      "min": [
        -1,
        -1,
        -1
      ],
      "type": "VEC3"
    },
    {
      "bufferView": 1,
      "byteOffset": 53936,
      "componentType": 5126,
      "count": 2402,
      "max": [
        3.9096689224243164,
        -0.9297720193862915
      ],
      "min": [
        -0.0078309997916221619,
        -3.5291669368743896
      ],
      "type": "VEC2"
    },
    {
      "bufferView": 0,
      "byteOffset": 71160,
      "componentType": 5125,
      "count": 5760,
      "max": [
        2401
      ],
      "min": [
        0
      ],
      "type": "SCALAR"
    },
    {
      "bufferView": 2,
      "byteOffset": 219456,
      "componentType": 5126,
      "count": 3693,
      "max": [
        1.0067299604415894,
        0.67927402257919312,
        -1.9202380180358887
      ],
      "min": [
        0.47590199112892151,
        -0.27927398681640625,
        -2.8787870407104492
      ],
      "type": "VEC3"
    },
    {
      "bufferView": 2,
      "byteOffset": 263772,
      "componentType": 5126,
      "count": 3693,
      "max": [
        1,
        1,
        1
      ],
      "min": [
        -1,
        -1,
        -1
      ],
      "type": "VEC3"
    },
    {
      "bufferView": 1,
      "byteOffset": 73152,
      "componentType": 5126,
      "count": 3693,
      "max": [
        3.9096689224243164,
        -0.9297720193862915
      ],
      "min": [
        -0.0078309997916221619,
        -3.5291669368743896
      ],
      "type": "VEC2"
    },
    {
      "bufferView": 0,
      "byteOffset": 94200,
      "componentType": 5125,
      "count": 9900,
      "max": [
        3692
      ],
      "min": [
        0
      ],
      "type": "SCALAR"
    },
    {
      "bufferView": 2,
      "byteOffset": 308088,
      "componentType": 5126,
      "count": 120,
      "max": [
        0.79385101795196533,
        0.30844300985336304,
        -2.2936298847198486
      ],
      "min": [
        0.79385101795196533,
        0.095638997852802277,
        -2.5064330101013184
      ],
      "type": "VEC3"
    },
    {
      "bufferView": 2,
      "byteOffset": 309528,
      "componentType": 5126,
      "count": 120,
      "max": [
        -1,
        1.0526020560064353e-05,
        0
      ],
      "min": [
        -1,
        -7.5197340265731327e-06,
        0
      ],
      "type": "VEC3"
    },
    {
      "bufferView": 1,
      "byteOffset": 102696,
      "componentType": 5126,
      "count": 120,
      "max": [
        1,
        1
      ],
      "min": [
        0,
        0
      ],
      "type": "VEC2"
    },
    {
      "bufferView": 0,
      "byteOffset": 133800,
      "componentType": 5125,
      "count": 180,
      "max": [
        119
      ],
      "min": [
        0
      ],
      "type": "SCALAR"
    }
  ],
  "asset": {
    "extras": {
      "author": "own.guest (https://sketchfab.com/own.guest)",
      "license": "CC-BY-4.0 (http://creativecommons.org/licenses/by/4.0/)",
      "source": "https://sketchfab.com/3d-models/coach-bus-89866d7d4a314f1f81b024280b1cf416",
      "title": "Coach bus"
    },
    "generator": "Sketchfab-8.12.1",
    "version": "2.0"
  },
  "bufferViews": [
    {
      "buffer": 0,
      "byteLength": 134520,
      "byteOffset": 0,
      "name": "floatBufferViews",
      "target": 34963
    },
    {
      "buffer": 0,
      "byteLength": 103656,
      "byteOffset": 134520,
      "byteStride": 8,
      "name": "floatBufferViews",
      "target": 34962
    },
    {
      "buffer": 0,
      "byteLength": 310968,
      "byteOffset": 238176,
      "byteStride": 12,
      "name": "floatBufferViews",
      "target": 34962
    },
    {
      "buffer": 0,
      "byteLength": 8432,
      "byteOffset": 549144,
      "byteStride": 16,
      "name": "floatBufferViews",
      "target": 34962
    }
  ],
  "buffers": [
    {
      "byteLength": 557576,
      "uri": "scene.bin"
    }
  ],
  "extensionsRequired": [
    "KHR_materials_pbrSpecularGlossiness"
  ],
  "extensionsUsed": [
    "KHR_materials_pbrSpecularGlossiness"
  ],
  "images": [
    {
      "uri": "textures/BusMaterial_diffuse.png"
    },
    {
      "uri": "textures/BusMaterial_specularGlossiness.png"
    },
    {
      "uri": "textures/BusMaterial_normal.png"
    },
    {
      "uri": "textures/BusMaterial_occlusion.png"
    },
    {
      "uri": "textures/standard_diffuse.jpeg"
    }
  ],
  "materials": [
    {
      "doubleSided": true,
      "emissiveFactor": [
        0,
        0,
        0
      ],
      "extensions": {
        "KHR_materials_pbrSpecularGlossiness": {
          "diffuseFactor": [
            1,
            1,
            1,
            1
          ],
          "diffuseTexture": {
            "index": 0,
            "texCoord": 0
          },
          "glossinessFactor": 1,
          "specularFactor": [
            1,
            1,
            1
          ],
          "specularGlossinessTexture": {
            "index": 1,
            "texCoord": 0
          }
        }
      },
      "name": "BusMaterial",
      "normalTexture": {
        "index": 2,
        "scale": 1,
        "texCoord": 0
      },
      "occlusionTexture": {
        "index": 3,
        "strength": 1,
        "texCoord": 0
      }
    },
    {
      "doubleSided": true,
      "emissiveFactor": [
        0,
        0,
        0
      ],
      "extensions": {
        "KHR_materials_pbrSpecularGlossiness": {
          "diffuseFactor": [
            1,
            1,
            1,
            1
          ],
          "diffuseTexture": {
            "index": 4,
            "texCoord": 0
          },
          "glossinessFactor": 0.52085552793560608,
          "specularFactor": [
            0,
            0,
            0
          ]
        }
      },
      "name": "standard"
    },
    {
      "doubleSided": true,
      "emissiveFactor": [
        0,
        0,
        0
      ],
      "extensions": {
        "KHR_materials_pbrSpecularGlossiness": {
          "diffuseFactor": [
            1,
            1,
            1,
            1
          ],
          "diffuseTexture": {
            "index": 4,
            "texCoord": 0
          },
          "glossinessFactor": 0.057847624899999998,
          "specularFactor": [
            0.050000000000000003,
            0.050000000000000003,
            0.050000000000000003
          ]
        }
      },
      "name": "standard_NONE"
    }
  ],
  "meshes": [
    {
      "name": "BusBody_BusMaterial_0",
      "primitives": [
        {
          "attributes": {
            "NORMAL": 1,
            "POSITION": 0,
            "TANGENT": 2,
            "TEXCOORD_0": 3
          },
          "indices": 4,
          "material": 0,
          "mode": 4
        }
      ]
    },
    {
      "name": "Wheel_FL_standard_0",
      "primitives": [
        {
          "attributes": {
            "NORMAL": 6,
            "POSITION": 5,
            "TEXCOORD_0": 7
          },
          "indices": 8,
          "material": 1,
          "mode": 4
        }
      ]
    },
    {
      "name": "Wheel_BR_standard_0",
      "primitives": [
        {
          "attributes": {
            "NORMAL": 10,
            "POSITION": 9,
            "TEXCOORD_0": 11
          },
          "indices": 12,
          "material": 1,
          "mode": 4
        }
      ]
    },
    {
      "name": "Wheel_BR_standard_NONE_0",
      "primitives": [
        {
          "attributes": {
            "NORMAL": 14,
            "POSITION": 13,
            "TEXCOORD_0": 15
          },
          "indices": 16,
          "material": 2,
          "mode": 4
        }
      ]
    },
    {
      "name": "Wheel_FR_standard_0",
      "primitives": [
        {
          "attributes": {
            "NORMAL": 18,
            "POSITION": 17,
            "TEXCOORD_0": 19
          },
          "indices": 20,
          "material": 1,
          "mode": 4
        }
      ]
    },
    {
      "name": "Wheel_BL_standard_0",
      "primitives": [
        {
          "attributes": {
            "NORMAL": 22,
            "POSITION": 21,
            "TEXCOORD_0": 23
          },
          "indices": 24,
          "material": 1,
          "mode": 4
        }
      ]
    },
    {
      "name": "Wheel_BL_standard_NONE_0",
      "primitives": [
        {
          "attributes": {
            "NORMAL": 26,
            "POSITION": 25,
            "TEXCOORD_0": 27
          },
          "indices": 28,
          "material": 2,
          "mode": 4
        }
      ]
    }
  ],
  "nodes": [
    {
      "children": [
        1
      ],
      "name": "RootNode (gltf orientation matrix)",
      "rotation": [
        -0.70710678118654746,
        -0,
        -0,
        0.70710678118654757
      ]
    },
    {
      "children": [
        2
      ],
      "name": "RootNode (model correction matrix)"
    },
    {
      "children": [
        3
      ],
      "matrix": [
        1,
        0,
        0,
        0,
        0,
        0,
        1,
        0,
        0,
        -1,
        0,
        0,
        0,
        0,
        0,
        1
      ],
      "name": "Bus.fbx"
    },
    {
      "children": [
        4
      ],
      "name": "RootNode"
    },
    {
      "children": [
        5,
        6,
        8,
        11,
        13
      ],
      "matrix": [
        100,
        0,
        0,
        0,
        0,
        99.999999999998664,
        1.6292067073209114e-05,
        0,
        0,
        -1.6292067073209114e-05,
        99.999999999998664,
        0,
        0,
        0,
        0,
        1
      ],
      "name": "BusBody"
    },
    {
      "mesh": 0,
      "name": "BusBody_BusMaterial_0"
    },
    {
      "children": [
        7
      ],
      "name": "Wheel_FL"
    },
    {
      "mesh": 1,
      "name": "Wheel_FL_standard_0"
    },
    {
      "children": [
        9,
        10
      ],
      "name": "Wheel_BR"
    },
    {
      "mesh": 2,
      "name": "Wheel_BR_standard_0"
    },
    {
      "mesh": 3,
      "name": "Wheel_BR_standard_NONE_0"
    },
    {
      "children": [
        12
      ],
      "name": "Wheel_FR"
    },
    {
      "mesh": 4,
      "name": "Wheel_FR_standard_0"
    },
    {
      "children": [
        14,
        15
      ],
      "name": "Wheel_BL"
    },
    {
      "mesh": 5,
      "name": "Wheel_BL_standard_0"
    },
    {
      "mesh": 6,
      "name": "Wheel_BL_standard_NONE_0"
    }
  ],
  "samplers": [
    {
      "magFilter": 9729,
      "minFilter": 9987,
      "wrapS": 10497,
      "wrapT": 10497
    }
  ],
  "scene": 0,
  "scenes": [
    {
      "name": "OSG_Scene",
      "nodes": [
        0
      ]
    }
  ],
  "textures": [
    {
      "sampler": 0,
      "source": 0
    },
    {
      "sampler": 0,
      "source": 1
    },
    {
      "sampler": 0,
      "source": 2
    },
    {
      "sampler": 0,
      "source": 3
    },
    {
      "sampler": 0,
      "source": 4
    }
  ]
}

